<svg id="Layer_1" data-name="Layer 1" xmlns="http://www.w3.org/2000/svg" xmlns:xlink="http://www.w3.org/1999/xlink" viewBox="0 0 368 303.74"><defs><style>.cls-1{fill:url(#linear-gradient);}.cls-2{fill:url(#linear-gradient-2);}.cls-3{fill:url(#linear-gradient-3);}.cls-4{fill:url(#linear-gradient-4);}.cls-5{fill:url(#linear-gradient-5);}.cls-6{fill:url(#linear-gradient-6);}.cls-7{fill:url(#linear-gradient-7);}.cls-8{fill:url(#linear-gradient-8);}.cls-9{fill:url(#linear-gradient-9);}.cls-10{fill:url(#linear-gradient-10);}.cls-11{fill:url(#linear-gradient-11);}.cls-12{fill:url(#linear-gradient-12);}.cls-13{fill:url(#linear-gradient-13);}.cls-14{fill:url(#linear-gradient-14);}.cls-15{fill:url(#linear-gradient-15);}.cls-16{fill:#fff;}.cls-17,.cls-18,.cls-19{stroke-miterlimit:10;}.cls-17{fill:url(#linear-gradient-16);stroke:url(#linear-gradient-17);}.cls-18{fill:url(#linear-gradient-18);stroke:url(#linear-gradient-19);}.cls-19{fill:url(#linear-gradient-20);stroke:url(#linear-gradient-21);}</style><linearGradient id="linear-gradient" x1="46.22" y1="296.21" x2="75.48" y2="143.05" gradientTransform="matrix(1, 0, 0, -1, 0, 306)" gradientUnits="userSpaceOnUse"><stop offset="0" stop-color="#d11d81"/><stop offset="0.15" stop-color="#c81f80"/><stop offset="0.41" stop-color="#ae237e"/><stop offset="0.73" stop-color="#862a7a"/><stop offset="1" stop-color="#5f3076"/></linearGradient><linearGradient id="linear-gradient-2" x1="107.29" y1="257.48" x2="147.33" y2="47.94" xlink:href="#linear-gradient"/><linearGradient id="linear-gradient-3" x1="127.33" y1="293.98" x2="176.05" y2="38.98" xlink:href="#linear-gradient"/><linearGradient id="linear-gradient-4" x1="140.58" y1="278.9" x2="191.06" y2="14.7" xlink:href="#linear-gradient"/><linearGradient id="linear-gradient-5" x1="166.83" y1="262.92" x2="210.29" y2="35.43" xlink:href="#linear-gradient"/><linearGradient id="linear-gradient-6" x1="387.54" y1="-41.22" x2="513.08" y2="-41.22" gradientTransform="matrix(1, 0, 0, -1, -169.96, 148.54)" xlink:href="#linear-gradient"/><linearGradient id="linear-gradient-7" x1="371.79" y1="-45.73" x2="492.95" y2="-45.73" gradientTransform="matrix(1, 0, 0, -1, -169.96, 148.54)" xlink:href="#linear-gradient"/><linearGradient id="linear-gradient-8" x1="369.77" y1="-48.91" x2="473.58" y2="-48.91" gradientTransform="matrix(1, 0, 0, -1, -169.96, 148.54)" xlink:href="#linear-gradient"/><linearGradient id="linear-gradient-9" x1="365.65" y1="-48.55" x2="453.59" y2="-48.55" gradientTransform="matrix(1, 0, 0, -1, -169.96, 148.54)" xlink:href="#linear-gradient"/><linearGradient id="linear-gradient-10" x1="394.74" y1="67.87" x2="451.38" y2="67.87" gradientTransform="matrix(1, 0, 0, -1, -169.96, 148.54)" xlink:href="#linear-gradient"/><linearGradient id="linear-gradient-11" x1="403.03" y1="89.4" x2="474.6" y2="89.4" gradientTransform="matrix(1, 0, 0, -1, -169.96, 148.54)" xlink:href="#linear-gradient"/><linearGradient id="linear-gradient-12" x1="410.43" y1="110.26" x2="477.08" y2="110.26" gradientTransform="matrix(1, 0, 0, -1, -169.96, 148.54)" xlink:href="#linear-gradient"/><linearGradient id="linear-gradient-13" x1="443.77" y1="44.28" x2="537.96" y2="44.28" gradientTransform="matrix(1, 0, 0, -1, -169.96, 148.54)" xlink:href="#linear-gradient"/><linearGradient id="linear-gradient-14" x1="455.85" y1="56.1" x2="480.83" y2="56.1" gradientTransform="matrix(1, 0, 0, -1, -169.96, 148.54)" xlink:href="#linear-gradient"/><linearGradient id="linear-gradient-15" x1="460.59" y1="55.47" x2="474.62" y2="55.47" gradientTransform="matrix(1, 0, 0, -1, -169.96, 148.54)" xlink:href="#linear-gradient"/><linearGradient id="linear-gradient-16" x1="333.61" y1="182.73" x2="339.35" y2="182.73" xlink:href="#linear-gradient"/><linearGradient id="linear-gradient-17" x1="333.11" y1="182.73" x2="339.85" y2="182.73" xlink:href="#linear-gradient"/><linearGradient id="linear-gradient-18" x1="343.12" y1="182.02" x2="348.86" y2="182.02" xlink:href="#linear-gradient"/><linearGradient id="linear-gradient-19" x1="345.26" y1="185.82" x2="346.72" y2="178.22" xlink:href="#linear-gradient"/><linearGradient id="linear-gradient-20" x1="523.09" y1="23.72" x2="528.83" y2="23.72" gradientTransform="matrix(1, 0, 0, -1, -169.96, 148.54)" xlink:href="#linear-gradient"/><linearGradient id="linear-gradient-21" x1="525.13" y1="28.12" x2="526.58" y2="20.49" gradientTransform="matrix(1, 0, 0, -1, -169.96, 148.54)" xlink:href="#linear-gradient"/></defs><g id="Layer_2" data-name="Layer 2"><polygon class="cls-1" points="0 0 70.92 245.94 81.79 245.94 115.79 141.86 79.72 1.9 0 0"/></g><g id="Layer_3" data-name="Layer 3"><polygon class="cls-2" points="95.55 267.95 85.66 267.84 159.15 38.61 168.98 38.85 95.55 267.95"/><polygon class="cls-3" points="114.07 278.86 102.46 278.68 189.4 0.16 200.95 0.49 114.07 278.86"/><polygon class="cls-4" points="125.95 303.74 114.09 303.33 205.77 14.64 217.58 15.21 125.95 303.74"/><polygon class="cls-5" points="153.56 281.41 143.13 281.05 223.63 32.23 234.01 32.72 153.56 281.41"/><path class="cls-6" d="M224.16,274.45l-6.58,8.91S275.93,298.54,314,268s36.24-87.24,9.57-121.82S242,126.54,241.24,123c0,0-13.13-6.24-1.94-18.18,0,0,9.32-2.14,11.13-2.32l8.71-10.07h-13s-16.5,1.25-19.74,12.12c0,0-6.6,18.8,8.29,27.27a10.49,10.49,0,0,0,6.4,1.69l32.36-.71s31.38-.54,51.45,34.48c0,0,16.7,33.89,1.91,66.33,0,0-12.51,37.54-63,42.53C263.85,276.11,236.58,278.61,224.16,274.45Z"/><path class="cls-7" d="M208.37,248.54l-6.54,7.57s24.53,14.89,61.48,9.63c0,0,34.53.65,53.69-33.8,0,0,14.15-24-1-59.65A51.62,51.62,0,0,0,276.62,144s-4.32-1.67-23,0c0,0-35.55,5-38.14-22.34l-5.18,12.86a31.62,31.62,0,0,0,28.48,18.79l28.32-1s30.2-2.37,43,31.37c0,0,15.53,39.68-17.95,62.26C292.15,245.94,266.82,268.77,208.37,248.54Z"/><path class="cls-8" d="M206.39,148.27l-3.67,10.27A54.7,54.7,0,0,0,246,174.13l24.2-1.07s25.5,4.46,23.55,30.84c0,0,1.69,23.52-24,29.22,0,0-30,11.41-62.5-7.3l-7.51,7s27.59,19.07,66.52,12.47,47.76-45.09,24.69-73.07c0,0-7-9.8-31.45-8.55L238,164S223,166.45,206.39,148.27Z"/><path class="cls-9" d="M199.83,169.12l-4.14,10.52s12.55,12.29,41,14.61h31.06s8.55,3.21,5.81,13c0,0-1.45,6.6-10.61,6.95l-20.45,1.07-7.62,9.8h24.69s12.29-1.06,17.59-6.23c0,0,13.21-10.06,1.82-29.09,0,0-2.59-4.6-10.49-5.13l-28.83-.17S216.79,185.54,199.83,169.12Z"/><path class="cls-10" d="M229.51,75.74l-4.73,14s8.72-9.18,36.31-8.2l13.33.8,7-8.91S244.09,68.07,229.51,75.74Z"/><path class="cls-11" d="M237.42,52.39l-4.35,11.5s31.95-8.47,64.38,3.65l7.19-8.29S276.25,46.24,237.42,52.39Z"/><path class="cls-12" d="M240.47,41.88s37.08-4.73,59.2,5.08L307.12,38s-30.68-11.5-62.36-7.66Z"/><path class="cls-13" d="M296.12,115.48s3.45-1.43,8.54,1.07A56.46,56.46,0,0,1,332.19,137l.72,10.33s3.79,13.78,14,7.61c0,0,19.68-6.89,21.06-31.73,0,0,2.51-12.23-26-32.79l2.6-5-4.45-3.87,15.62-28s.43-.95-2.59-1.54L337.44,80.63l-3.71-3L330.1,83s-14-9.26-29.05-9.5c0,0-14.93-.83-20.28,11a48,48,0,0,0-7,23.52s-.2,16.88,15.85,10.34Z"/><path class="cls-14" d="M298.38,79.3c-6.9,0-12.49,5.89-12.49,13.15s5.59,13.14,12.49,13.14,12.49-5.89,12.49-13.14S305.28,79.3,298.38,79.3Zm4.27,19.61-3.43-2-2.9,4.1-3.82-2.77,1.88-3.38-3.75-3.21L293,86.88l3.74,2.49,2.4-4.19L303.5,88s-1.68,3.56-2,3.92,3.17,2.76,3.17,2.76Z"/><path class="cls-15" d="M304.66,94.72l-2,4.19-3.43-2-2.9,4.1-3.82-2.77,1.88-3.38-3.75-3.21L293,86.88l3.74,2.49,2.4-4.19L303.5,88s-1.68,3.56-2,3.92S304.66,94.72,304.66,94.72Z"/><path class="cls-16" d="M304.66,94.72l-2,4.19-3.43-2-2.9,4.1-3.82-2.77,1.88-3.38-3.75-3.21L293,86.88l3.74,2.49,2.4-4.19L303.5,88s-1.68,3.56-2,3.92S304.66,94.72,304.66,94.72Z"/><path class="cls-16" d="M325.35,92.22l11.41,6.64a3.61,3.61,0,0,1,1.19,4h0c-.48,1.57-1.8,2.31-2.94,1.64l-11.4-6.64a3.59,3.59,0,0,1-1.2-4h0C322.9,92.29,324.21,91.55,325.35,92.22Z"/><path class="cls-16" d="M335.34,117.85l22.36.71c2.18.07,3.9,2.55,3.85,5.54h0c-.05,3-1.85,5.37-4,5.3l-22.36-.71c-2.18-.07-3.9-2.55-3.85-5.54h0C331.36,120.15,333.16,117.78,335.34,117.85Z"/><path class="cls-16" d="M345.3,110.54h8.8s3,1.81.1,4.78l-9.74-.18s-2.18-2.49,0-4.6Z"/><ellipse class="cls-17" cx="336.48" cy="123.27" rx="2.87" ry="3.39"/><ellipse class="cls-18" cx="345.99" cy="123.98" rx="2.87" ry="3.39"/><path class="cls-19" d="M358.87,124.21c.24,2.18-.84,4.23-2.42,4.57s-3.07-1.15-3.32-3.33.83-4.23,2.42-4.57a1.84,1.84,0,0,1,.41,0c1.48-.17,2.78,1.34,2.91,3.37Z"/><polygon class="cls-16" points="334.42 81.49 340.57 85.95 339.28 88.35 332.81 84.07 334.42 81.49"/></g></svg>